<mxfile host="app.diagrams.net" modified="2023-09-04T18:38:55.345Z" agent="Mozilla/5.0 (Windows NT 10.0; Win64; x64) AppleWebKit/537.36 (KHTML, like Gecko) Chrome/116.0.0.0 Safari/537.36" etag="Aks1EhiuKHJE1pRSOHdc" version="21.7.2" type="device">
  <diagram name="Страница — 1" id="JcJq9Fr3MrZBO1Xcf1nO">
    <mxGraphModel dx="732" dy="472" grid="1" gridSize="10" guides="1" tooltips="1" connect="1" arrows="1" fold="1" page="1" pageScale="1" pageWidth="827" pageHeight="1169" math="0" shadow="0">
      <root>
        <mxCell id="0" />
        <mxCell id="1" parent="0" />
        <mxCell id="pvzfY4MJe9HBvJoVbgEI-18" style="edgeStyle=orthogonalEdgeStyle;rounded=0;orthogonalLoop=1;jettySize=auto;html=1;entryX=0;entryY=0.5;entryDx=0;entryDy=0;" edge="1" parent="1" source="pvzfY4MJe9HBvJoVbgEI-1" target="pvzfY4MJe9HBvJoVbgEI-3">
          <mxGeometry relative="1" as="geometry" />
        </mxCell>
        <mxCell id="pvzfY4MJe9HBvJoVbgEI-19" style="edgeStyle=orthogonalEdgeStyle;rounded=0;orthogonalLoop=1;jettySize=auto;html=1;entryX=0;entryY=0.5;entryDx=0;entryDy=0;" edge="1" parent="1" source="pvzfY4MJe9HBvJoVbgEI-1" target="pvzfY4MJe9HBvJoVbgEI-5">
          <mxGeometry relative="1" as="geometry" />
        </mxCell>
        <mxCell id="pvzfY4MJe9HBvJoVbgEI-20" style="edgeStyle=orthogonalEdgeStyle;rounded=0;orthogonalLoop=1;jettySize=auto;html=1;entryX=0;entryY=0.5;entryDx=0;entryDy=0;" edge="1" parent="1" source="pvzfY4MJe9HBvJoVbgEI-1" target="pvzfY4MJe9HBvJoVbgEI-4">
          <mxGeometry relative="1" as="geometry" />
        </mxCell>
        <mxCell id="pvzfY4MJe9HBvJoVbgEI-1" value="Пользователь" style="shape=umlActor;verticalLabelPosition=bottom;verticalAlign=top;html=1;" vertex="1" parent="1">
          <mxGeometry x="60" y="230" width="30" height="60" as="geometry" />
        </mxCell>
        <mxCell id="pvzfY4MJe9HBvJoVbgEI-24" style="edgeStyle=orthogonalEdgeStyle;rounded=0;orthogonalLoop=1;jettySize=auto;html=1;entryX=1;entryY=0.5;entryDx=0;entryDy=0;" edge="1" parent="1" source="pvzfY4MJe9HBvJoVbgEI-2" target="pvzfY4MJe9HBvJoVbgEI-23">
          <mxGeometry relative="1" as="geometry" />
        </mxCell>
        <mxCell id="pvzfY4MJe9HBvJoVbgEI-2" value="Пылесос" style="shape=umlActor;verticalLabelPosition=bottom;verticalAlign=top;html=1;" vertex="1" parent="1">
          <mxGeometry x="740" y="230" width="30" height="60" as="geometry" />
        </mxCell>
        <mxCell id="pvzfY4MJe9HBvJoVbgEI-9" style="edgeStyle=orthogonalEdgeStyle;rounded=0;orthogonalLoop=1;jettySize=auto;html=1;exitX=0.5;exitY=0;exitDx=0;exitDy=0;entryX=0;entryY=0.5;entryDx=0;entryDy=0;" edge="1" parent="1" source="pvzfY4MJe9HBvJoVbgEI-3" target="pvzfY4MJe9HBvJoVbgEI-6">
          <mxGeometry relative="1" as="geometry" />
        </mxCell>
        <mxCell id="pvzfY4MJe9HBvJoVbgEI-10" style="edgeStyle=orthogonalEdgeStyle;rounded=0;orthogonalLoop=1;jettySize=auto;html=1;exitX=1;exitY=0.5;exitDx=0;exitDy=0;entryX=0;entryY=0.5;entryDx=0;entryDy=0;" edge="1" parent="1" source="pvzfY4MJe9HBvJoVbgEI-3" target="pvzfY4MJe9HBvJoVbgEI-7">
          <mxGeometry relative="1" as="geometry" />
        </mxCell>
        <mxCell id="pvzfY4MJe9HBvJoVbgEI-11" style="edgeStyle=orthogonalEdgeStyle;rounded=0;orthogonalLoop=1;jettySize=auto;html=1;exitX=0.5;exitY=1;exitDx=0;exitDy=0;entryX=0;entryY=0.5;entryDx=0;entryDy=0;" edge="1" parent="1" source="pvzfY4MJe9HBvJoVbgEI-3" target="pvzfY4MJe9HBvJoVbgEI-8">
          <mxGeometry relative="1" as="geometry" />
        </mxCell>
        <mxCell id="pvzfY4MJe9HBvJoVbgEI-3" value="Уборка" style="ellipse;whiteSpace=wrap;html=1;" vertex="1" parent="1">
          <mxGeometry x="170" y="80" width="140" height="40" as="geometry" />
        </mxCell>
        <mxCell id="pvzfY4MJe9HBvJoVbgEI-14" style="edgeStyle=orthogonalEdgeStyle;rounded=0;orthogonalLoop=1;jettySize=auto;html=1;exitX=0.5;exitY=0;exitDx=0;exitDy=0;entryX=0;entryY=0.5;entryDx=0;entryDy=0;" edge="1" parent="1" source="pvzfY4MJe9HBvJoVbgEI-4" target="pvzfY4MJe9HBvJoVbgEI-12">
          <mxGeometry relative="1" as="geometry">
            <Array as="points">
              <mxPoint x="240" y="230" />
            </Array>
          </mxGeometry>
        </mxCell>
        <mxCell id="pvzfY4MJe9HBvJoVbgEI-15" style="edgeStyle=orthogonalEdgeStyle;rounded=0;orthogonalLoop=1;jettySize=auto;html=1;exitX=0.5;exitY=1;exitDx=0;exitDy=0;entryX=0;entryY=0.5;entryDx=0;entryDy=0;" edge="1" parent="1" source="pvzfY4MJe9HBvJoVbgEI-4" target="pvzfY4MJe9HBvJoVbgEI-13">
          <mxGeometry relative="1" as="geometry">
            <Array as="points">
              <mxPoint x="240" y="290" />
            </Array>
          </mxGeometry>
        </mxCell>
        <mxCell id="pvzfY4MJe9HBvJoVbgEI-4" value="Обслуживание" style="ellipse;whiteSpace=wrap;html=1;" vertex="1" parent="1">
          <mxGeometry x="170" y="240" width="140" height="40" as="geometry" />
        </mxCell>
        <mxCell id="pvzfY4MJe9HBvJoVbgEI-21" style="edgeStyle=orthogonalEdgeStyle;rounded=0;orthogonalLoop=1;jettySize=auto;html=1;entryX=0;entryY=0.5;entryDx=0;entryDy=0;exitX=0.5;exitY=0;exitDx=0;exitDy=0;" edge="1" parent="1" source="pvzfY4MJe9HBvJoVbgEI-5" target="pvzfY4MJe9HBvJoVbgEI-16">
          <mxGeometry relative="1" as="geometry">
            <Array as="points">
              <mxPoint x="240" y="390" />
            </Array>
          </mxGeometry>
        </mxCell>
        <mxCell id="pvzfY4MJe9HBvJoVbgEI-22" style="edgeStyle=orthogonalEdgeStyle;rounded=0;orthogonalLoop=1;jettySize=auto;html=1;entryX=0;entryY=0.5;entryDx=0;entryDy=0;exitX=0.5;exitY=1;exitDx=0;exitDy=0;" edge="1" parent="1" source="pvzfY4MJe9HBvJoVbgEI-5" target="pvzfY4MJe9HBvJoVbgEI-17">
          <mxGeometry relative="1" as="geometry">
            <Array as="points">
              <mxPoint x="240" y="450" />
            </Array>
          </mxGeometry>
        </mxCell>
        <mxCell id="pvzfY4MJe9HBvJoVbgEI-5" value="Настройка" style="ellipse;whiteSpace=wrap;html=1;" vertex="1" parent="1">
          <mxGeometry x="170" y="400" width="140" height="40" as="geometry" />
        </mxCell>
        <mxCell id="pvzfY4MJe9HBvJoVbgEI-6" value="Влажная" style="ellipse;whiteSpace=wrap;html=1;" vertex="1" parent="1">
          <mxGeometry x="370" y="30" width="140" height="40" as="geometry" />
        </mxCell>
        <mxCell id="pvzfY4MJe9HBvJoVbgEI-7" value="Сухая" style="ellipse;whiteSpace=wrap;html=1;" vertex="1" parent="1">
          <mxGeometry x="370" y="80" width="140" height="40" as="geometry" />
        </mxCell>
        <mxCell id="pvzfY4MJe9HBvJoVbgEI-8" value="Комбинированная" style="ellipse;whiteSpace=wrap;html=1;" vertex="1" parent="1">
          <mxGeometry x="370" y="130" width="140" height="40" as="geometry" />
        </mxCell>
        <mxCell id="pvzfY4MJe9HBvJoVbgEI-12" value="Замена щеток" style="ellipse;whiteSpace=wrap;html=1;" vertex="1" parent="1">
          <mxGeometry x="370" y="210" width="140" height="40" as="geometry" />
        </mxCell>
        <mxCell id="pvzfY4MJe9HBvJoVbgEI-13" value="Чистка контейнера" style="ellipse;whiteSpace=wrap;html=1;" vertex="1" parent="1">
          <mxGeometry x="370" y="270" width="140" height="40" as="geometry" />
        </mxCell>
        <mxCell id="pvzfY4MJe9HBvJoVbgEI-16" value="Задания" style="ellipse;whiteSpace=wrap;html=1;" vertex="1" parent="1">
          <mxGeometry x="370" y="370" width="140" height="40" as="geometry" />
        </mxCell>
        <mxCell id="pvzfY4MJe9HBvJoVbgEI-17" value="Расписание" style="ellipse;whiteSpace=wrap;html=1;" vertex="1" parent="1">
          <mxGeometry x="370" y="430" width="140" height="40" as="geometry" />
        </mxCell>
        <mxCell id="pvzfY4MJe9HBvJoVbgEI-23" value="Обновление" style="ellipse;whiteSpace=wrap;html=1;" vertex="1" parent="1">
          <mxGeometry x="560" y="240" width="140" height="40" as="geometry" />
        </mxCell>
      </root>
    </mxGraphModel>
  </diagram>
</mxfile>
